<svg height="512" viewBox="0 0 59 58" width="512" xmlns="http://www.w3.org/2000/svg"><g id="023---Cricket"><path id="Shape" d="m58.71 8.92-7.78 7.78-3.54-3.54 7.78-7.86c.1877666-.18931265.4433625-.29579832.71-.29579832s.5222334.10648567.71.29579832l2.12 2.2c.1893127.1877666.2957983.44336246.2957983.71s-.1064856.5222334-.2957983.71z"/><path id="Shape" d="m29 0v2h-1c-1.6568542 0-3 1.34314575-3 3h-2c0-1.65685425-1.3431458-3-3-3h-1v-1c0-.55228475.4477153-1 1-1z"/><path id="Shape" d="m15.11 15.46c-.2350428-.463913-.5164798-.9028206-.84-1.31l-11.12 11.11c.40763776.3257429.84643142.6104564 1.31.85z"/><path id="Shape" d="m11.53 11.89-10.65 10.64c.24077984.46599.5253985.9079861.85 1.32l11.12-11.11c-.4110664-.3259274-.8531949-.6106314-1.32-.85z"/><path id="Shape" d="m9.44 11.15c-.47341175-.100359-.95606798-.1506356-1.44-.15-4.37818456.0953266-7.90467335 3.6218154-8 8-.00063564.483932.04964105.9665882.15 1.44z"/><path id="Shape" d="m6.55 26.85c.47679573.1003276.96276348.1506001 1.45.15 4.3781846-.0953266 7.9046734-3.6218154 8-8-.003852-.4869994-.0540788-.972525-.15-1.45z"/><path id="Shape" d="m39 1v1h-1c-1.6568542 0-3 1.34314575-3 3h-2c0-1.65685425-1.3431458-3-3-3h-1v-2h9c.5522847 0 1 .44771525 1 1z"/><path id="Shape" d="m41 5v7.48l-4 4v-11.48c0-.55228475.4477153-1 1-1h2c.5522847 0 1 .44771525 1 1z"/><path id="Shape" d="m41 33.69v23.31c0 .5522847-.4477153 1-1 1h-2c-.5522847 0-1-.4477153-1-1v-19.31z"/><path id="Shape" d="m31 5v17.45l-4 4v-21.45c0-.55228475.4477153-1 1-1h2c.5522847 0 1 .44771525 1 1z"/><path id="Shape" d="m31 43.69v13.31c0 .5522847-.4477153 1-1 1h-2c-.5522847 0-1-.4477153-1-1v-9.31z"/><path id="Shape" d="m21 5v27.42l-4 4v-31.42c0-.55228475.4477153-1 1-1h2c.5522847 0 1 .44771525 1 1z"/><path id="Shape" d="m21 53.69v3.31c0 .5522847-.4477153 1-1 1h-2c-.3419422-.0027417-.6587758-.1800176-.84-.47z"/><path id="Shape" d="m50.42 21.45-36.25 36.25c-.1877666.1893127-.4433625.2957983-.71.2957983s-.5222334-.1064856-.71-.2957983l-6.44-6.38c-.38772359-.3900375-.38772359-1.0199625 0-1.41l36.33-36.24c.3047033-.30789.7729935-.3845927 1.16-.19l2.2 1.1 3.53 3.53 1.1 2.18c.1895813.3912084.1046987.8600836-.21 1.16z"/><path id="Shape" d="m50.42 21.45-36.25 36.25c-.1877666.1893127-.4433625.2957983-.71.2957983s-.5222334-.1064856-.71-.2957983l-6.44-6.38c-.38772359-.3900375-.38772359-1.0199625 0-1.41l36.33-36.24c.3047033-.30789.7729935-.3845927 1.16-.19l2.2 1.1 3.53 3.53 1.1 2.18c.1895813.3912084.1046987.8600836-.21 1.16z"/></g></svg>